<svg width="12" height="17" viewBox="0 0 12 17" fill="none" xmlns="http://www.w3.org/2000/svg">
<path d="M11.4345 4.23113C11.374 4.00434 11.2511 3.76268 11.1602 3.55111C10.0724 0.936887 7.69564 0 5.77649 0C3.20737 0 0.377774 1.72271 0 5.27362V5.99909C0 6.02937 0.0104344 6.30134 0.0252561 6.43738C0.237028 8.12966 1.57236 9.92817 2.56964 11.6205C3.64257 13.4336 4.75589 15.2171 5.8589 17C6.53904 15.8365 7.21672 14.6578 7.88136 13.5245C8.0625 13.1919 8.27277 12.8595 8.45411 12.542C8.57498 12.3306 8.80588 12.1192 8.91137 11.9226C9.98426 9.95825 11.7112 7.97875 11.7112 6.02933V5.22849C11.7112 5.01715 11.4493 4.2767 11.4345 4.23113ZM5.82353 7.87298C5.06833 7.87298 4.24172 7.49537 3.83371 6.45252C3.77292 6.28651 3.77782 5.95384 3.77782 5.92336V5.45492C3.77782 4.12548 4.90664 3.52091 5.88866 3.52091C7.09763 3.52091 8.03266 4.48815 8.03266 5.69713C8.03266 6.90606 7.0325 7.87298 5.82353 7.87298Z" fill="white"/>
</svg>
