<svg width="32" height="22" viewBox="0 0 32 22" fill="none" xmlns="http://www.w3.org/2000/svg">
<path d="M6.94998 7.90753C10.7713 7.90753 13.8691 11.0054 13.8691 14.8266C13.8691 18.6479 10.7713 21.7457 6.94998 21.7457C3.12866 21.7457 0.0308888 18.6479 0.0308888 14.8266L0 13.8382C0 6.19555 6.19555 0 13.8382 0V3.95377C11.198 3.95377 8.71577 4.98193 6.84885 6.84885C6.48949 7.20827 6.16151 7.59067 5.86566 7.99235C6.21896 7.93675 6.58104 7.90753 6.94998 7.90753ZM24.7419 7.90753C28.5632 7.90753 31.661 11.0054 31.661 14.8266C31.661 18.6479 28.5632 21.7457 24.7419 21.7457C20.9207 21.7457 17.8228 18.6479 17.8228 14.8266L17.7919 13.8382C17.7919 6.19555 23.9874 0 31.6301 0V3.95377C28.99 3.95377 26.5077 4.98193 24.6408 6.84885C24.2814 7.20827 23.9534 7.59067 23.6575 7.99235C24.0108 7.93675 24.3729 7.90753 24.7419 7.90753Z" fill="#FED84C"/>
</svg>
